<svg xmlns="http://www.w3.org/2000/svg" viewBox="0 0 91.5 123"><rect width="65" height="95" rx="32.5" style="fill:#ed225d"/><rect x="26.5" y="28" width="65" height="95" rx="32.5" style="fill:#ed225d"/><path d="M59,75.5h0a13,13,0,0,1,13,13v2a13,13,0,0,1-13,13h0a13,13,0,0,1-13-13" style="fill:none;stroke:#fff;stroke-miterlimit:10;stroke-width:14px"/><path d="M59,75.5H46v-15a13,13,0,0,1,13-13h0" style="fill:none;stroke:#fff;stroke-miterlimit:10;stroke-width:14px"/><path d="M59,47.5h0a13,13,0,0,1,13,13v2" style="fill:none;stroke:#fff;stroke-miterlimit:10;stroke-width:14px"/><rect width="65" height="65" rx="32.5" style="fill:#ed225d"/><path d="M32.5,75.5a13,13,0,0,1-13-13v-30a13,13,0,0,1,26,0" style="fill:none;stroke:#fff;stroke-miterlimit:10;stroke-width:14px"/><rect x="26.5" y="46.4" width="14" height="40" style="fill:#ed225d"/><rect x="19.5" y="19.5" width="26" height="28" rx="13" style="fill:none;stroke:#fff;stroke-miterlimit:10;stroke-width:14px"/></svg>