<svg xmlns="http://www.w3.org/2000/svg" viewBox="0 0 168.42 207.95"><path d="M157.83,30.93Q147.58,14.52,132.76,6.71A58,58,0,0,0,100.83.18q-17.11,1.26-34.28,12L0,53.76,96.35,208l41.86-26.16L109.61,136l23.18-14.49q17.63-11,26.74-25.82a57.53,57.53,0,0,0,8.89-31.51Q168.18,47.49,157.83,30.93Z" style="fill:#ed225d"/><path d="M85.81,112.83a20.71,20.71,0,0,1-22.24-8.24,19.14,19.14,0,0,1-3.27-14.5,18.55,18.55,0,0,1,.62-2.44l.49-1.5,1.34,1A33.33,33.33,0,0,0,73,92.23l1,.3-.09,1a5.83,5.83,0,0,0,1,3.88,6.26,6.26,0,0,0,6.7,2.49,6,6,0,0,0,1.6-.71l26.08-16.62a5.42,5.42,0,0,0,2.45-3.63,5.79,5.79,0,0,0-1-4.37A6.27,6.27,0,0,0,104,72a5.47,5.47,0,0,0-1.6.71l-10,6.34a19,19,0,0,1-5.29,2.33,20.73,20.73,0,0,1-22.24-8.25,19.17,19.17,0,0,1-3.28-14.5,18,18,0,0,1,8.13-12.05L95.88,30a18.61,18.61,0,0,1,5.3-2.33,20.7,20.7,0,0,1,22.23,8.24,19.18,19.18,0,0,1,3.28,14.5,18.55,18.55,0,0,1-.62,2.44l-.5,1.5-1.33-1a33.55,33.55,0,0,0-10.2-5.1l-1-.3.09-1a5.88,5.88,0,0,0-1.06-3.87,6.23,6.23,0,0,0-6.69-2.49,5.47,5.47,0,0,0-1.6.71L77.72,58a5.42,5.42,0,0,0-2.45,3.63,5.81,5.81,0,0,0,1,4.37A6.26,6.26,0,0,0,83,68.46a6,6,0,0,0,1.6-.71l10-6.34a19,19,0,0,1,5.3-2.33A20.73,20.73,0,0,1,122,67.32a19.2,19.2,0,0,1,3.28,14.51,18,18,0,0,1-8.13,12L91.11,110.5a19.15,19.15,0,0,1-5.3,2.33" style="fill:#fff"/></svg>